<svg xmlns="http://www.w3.org/2000/svg" viewBox="0 0 32 32">
  <rect width="32" height="32" rx="6" fill="#1A2332"/>
  <g transform="translate(2 5.5) scale(0.0544)">
    <path d="M247.304 58.956C240.503 63.103 238.419 69.561 237.02 90.824 236.452 99.446 235.502 113.925 234.907 123 233.75 140.651 231.964 153.017 229.604 159.706 228.179 163.744 228.229 164.034 231.532 170.926 233.396 174.817 235.357 178 235.888 178 237.306 178 242.583 163.673 244.36 155 246.069 146.659 247.587 129.668 248.513 108.5 249.416 87.88 250.904 74.087 252.574 70.856 254.616 66.908 257.729 67.087 259.428 71.25 261.349 75.959 261.8 80.39 263.527 111.5 265.648 149.729 267.378 160.249 273.887 174.5L276.628 180.5 272.946 189C268.071 200.256 265.479 210.868 262.453 231.966 259.999 249.071 258.446 254 255.512 254 253.032 254 251.985 250.481 248.884 231.718 245.661 212.211 241.859 199.148 236.598 189.506 226.056 170.184 223.911 165.744 221.614 158.5 220.22 154.1 218.138 145.55 216.988 139.5 213.487 121.072 212.811 118.377 210.575 113.936 207.732 108.29 204.225 105.824 198.215 105.247 191.585 104.61 186.671 106.999 183.507 112.398 182.173 114.673 179.581 122.181 177.746 129.081 173.425 145.326 170.699 150.022 163.557 153.516 156.994 156.727 148.576 157.924 132.25 157.967L120 158V163.5 169L126.75 169.016C130.463 169.025 138.477 169.444 144.559 169.948 168.196 171.904 175.139 178.005 181.552 202.458 184.4 213.316 185.677 216.277 189.057 219.86 193.823 224.913 203.071 226.484 209.655 223.359 214.68 220.975 217.667 216.434 221.163 205.862 222.865 200.713 224.59 196.132 224.996 195.683 225.402 195.234 226.922 197.834 228.374 201.462 230.942 207.876 234.303 223.37 237.443 243.267 239.469 256.108 242.459 262.076 248.278 264.893 258.88 270.025 268.98 264.924 272.454 252.683 273.263 249.833 274.868 240.525 276.02 232 278.066 216.856 280.47 205.551 283.358 197.5L284.792 193.5 287.499 199.5C288.988 202.8 291.094 207.87 292.181 210.766 295.786 220.378 301.54 225 309.903 225 315.018 225 318.798 223.537 322.339 220.186 326.333 216.407 327.521 213.755 330.519 201.914 335.002 184.211 340.102 177.233 351.942 172.601 356.465 170.831 373.055 169.046 385.25 169.016L392 169V163.645 158.29L374.75 157.75C355.17 157.137 348.774 155.51 343.31 149.752 338.901 145.106 337.243 141.326 333.917 128.34 332.299 122.022 330.302 115.551 329.479 113.959 325.727 106.705 317.949 103.5 309.927 105.904 302.731 108.06 299.666 114.573 295.999 135.5 294.842 142.1 292.616 151.325 291.053 156L288.21 164.5 290.98 170.614C292.504 173.977 294.215 177.015 294.782 177.365 295.924 178.071 300.594 167.462 303.905 156.638 305.06 152.864 307.147 143.466 308.545 135.754 311.362 120.205 313.106 115 315.5 115 317.61 115 319.41 119.521 322.487 132.541 326.567 149.809 330.031 155.693 339.199 160.929L344.122 163.74 338.697 166.802C328.159 172.749 323.038 180.964 318.074 199.882 316.448 206.082 314.567 211.817 313.894 212.628 313.18 213.488 311.416 213.977 309.66 213.801 306.821 213.517 306.386 212.845 302.012 202 299.462 195.675 294.834 186.301 291.729 181.168 288.623 176.036 285.175 169.411 284.066 166.447 280.621 157.239 278.136 142.217 277.045 124 274.171 75.992 273.202 68.426 269.251 63.135 264.781 57.147 253.724 55.042 247.304 58.956M199.4 117.806C200.198 119.35 201.795 125.762 202.949 132.056 206.929 153.769 209.655 163.549 215.144 175.809 217.653 181.412 217.815 182.363 216.589 184.309 215.322 186.322 210.786 197.601 206.558 209.25 205.043 213.425 204.485 214 201.94 214 198.077 214 196.749 211.697 193.579 199.5 188.752 180.926 182.32 171.158 171.353 165.747L167.206 163.702 172.059 161.284C181.416 156.621 185.394 150.038 189.528 132.375 192.773 118.512 192.841 118.302 194.637 116.506 196.786 114.357 197.752 114.621 199.4 117.806" fill="white" fill-rule="evenodd"/>
  </g>
</svg>
