<svg width="336" height="336" viewBox="0 0 336 336" fill="none" xmlns="http://www.w3.org/2000/svg">
<circle cx="168" cy="168" r="168" fill="white"/>
<path fill-rule="evenodd" clip-rule="evenodd" d="M159.304 64.9895C152.503 69.1365 150.419 75.5945 149.02 96.8575C148.452 105.479 147.502 119.959 146.907 129.034C145.75 146.684 143.964 159.05 141.604 165.739C140.179 169.777 140.229 170.067 143.532 176.959C145.396 180.85 147.357 184.034 147.888 184.034C149.306 184.034 154.583 169.707 156.36 161.034C158.069 152.693 159.587 135.701 160.513 114.534C161.416 93.9135 162.904 80.1205 164.574 76.8895C166.616 72.9415 169.729 73.1205 171.428 77.2835C173.349 81.9925 173.8 86.4235 175.527 117.534C177.648 155.763 179.378 166.283 185.887 180.534L188.628 186.534L184.946 195.033C180.071 206.289 177.479 216.901 174.453 237.999C171.999 255.104 170.446 260.033 167.512 260.033C165.032 260.033 163.985 256.514 160.884 237.751C157.661 218.244 153.859 205.181 148.598 195.539C138.056 176.217 135.911 171.778 133.614 164.534C132.22 160.134 130.138 151.584 128.988 145.534C125.487 127.106 124.811 124.41 122.575 119.969C119.732 114.323 116.225 111.858 110.215 111.281C103.585 110.644 98.671 113.033 95.507 118.432C94.173 120.707 91.581 128.214 89.746 135.114C85.425 151.359 82.699 156.056 75.557 159.55C68.994 162.761 60.576 163.957 44.25 164L32 164.034V169.534V175.034L38.75 175.05C42.463 175.059 50.477 175.477 56.559 175.981C80.196 177.937 87.139 184.038 93.552 208.491C96.4 219.349 97.677 222.31 101.057 225.893C105.823 230.946 115.071 232.517 121.655 229.392C126.68 227.008 129.667 222.467 133.163 211.895C134.865 206.746 136.59 202.165 136.996 201.716C137.402 201.267 138.922 203.867 140.374 207.495C142.942 213.909 146.303 229.403 149.443 249.3C151.469 262.141 154.459 268.109 160.278 270.926C170.88 276.058 180.98 270.957 184.454 258.716C185.263 255.866 186.868 246.558 188.02 238.033C190.066 222.889 192.47 211.584 195.358 203.533L196.792 199.533L199.499 205.533C200.988 208.833 203.094 213.903 204.181 216.799C207.786 226.411 213.54 231.033 221.903 231.033C227.018 231.033 230.798 229.57 234.339 226.219C238.333 222.44 239.521 219.788 242.519 207.947C247.002 190.244 252.102 183.266 263.942 178.634C268.465 176.864 285.055 175.08 297.25 175.05L304 175.034V169.679V164.323L286.75 163.784C267.17 163.171 260.774 161.543 255.31 155.785C250.901 151.139 249.243 147.359 245.917 134.373C244.299 128.055 242.302 121.585 241.479 119.993C237.727 112.739 229.949 109.533 221.927 111.938C214.731 114.093 211.666 120.607 207.999 141.534C206.842 148.134 204.616 157.359 203.053 162.034L200.21 170.534L202.98 176.647C204.504 180.01 206.215 183.049 206.782 183.399C207.924 184.105 212.594 173.496 215.905 162.672C217.06 158.898 219.147 149.499 220.545 141.787C223.362 126.238 225.106 121.034 227.5 121.034C229.61 121.034 231.41 125.555 234.487 138.575C238.567 155.843 242.031 161.727 251.199 166.963L256.122 169.774L250.697 172.836C240.159 178.783 235.038 186.997 230.074 205.915C228.448 212.115 226.567 217.85 225.894 218.661C225.18 219.521 223.416 220.01 221.66 219.834C218.821 219.55 218.386 218.878 214.012 208.033C211.462 201.708 206.834 192.334 203.729 187.201C200.623 182.069 197.175 175.445 196.066 172.481C192.621 163.273 190.136 148.25 189.045 130.034C186.171 82.0255 185.202 74.4595 181.251 69.1685C176.781 63.1805 165.724 61.0755 159.304 64.9895ZM111.4 123.84C112.198 125.384 113.795 131.796 114.949 138.09C118.929 159.802 121.655 169.583 127.144 181.843C129.653 187.446 129.815 188.397 128.589 190.343C127.322 192.356 122.786 203.634 118.558 215.283C117.043 219.458 116.485 220.033 113.94 220.033C110.077 220.033 108.749 217.73 105.579 205.533C100.752 186.959 94.32 177.191 83.353 171.78L79.206 169.735L84.059 167.317C93.416 162.654 97.394 156.072 101.528 138.409C104.773 124.546 104.841 124.335 106.637 122.539C108.786 120.39 109.752 120.655 111.4 123.84Z" fill="black"/>
</svg>
