<svg width="336" height="336" viewBox="0 0 336 336" fill="none" xmlns="http://www.w3.org/2000/svg">
<circle cx="168" cy="168" r="168" fill="white"/>
<path fill-rule="evenodd" clip-rule="evenodd" d="M157.258 40.4643C148.857 45.6009 146.282 53.6 144.554 79.9371C143.852 90.6166 142.679 108.551 141.944 119.791C140.515 141.654 138.308 156.971 135.393 165.257C133.633 170.258 133.695 170.617 137.775 179.154C140.077 183.974 142.5 187.916 143.156 187.916C144.907 187.916 151.426 170.17 153.621 159.428C155.732 149.096 157.607 128.051 158.751 101.831C159.867 76.2905 161.705 59.206 163.768 55.204C166.29 50.3139 170.136 50.5356 172.235 55.692C174.608 61.5248 175.165 67.0132 177.298 105.547C179.918 152.899 182.055 165.929 190.096 183.581L193.482 191.013L188.933 201.541C182.911 215.483 179.709 228.628 175.971 254.76C172.94 275.947 171.022 282.052 167.397 282.052C164.334 282.052 163.04 277.694 159.21 254.453C155.228 230.291 150.532 214.111 144.033 202.168C131.01 178.235 128.361 172.736 125.523 163.763C123.801 158.313 121.229 147.723 119.809 140.229C115.484 117.403 114.649 114.065 111.887 108.564C108.375 101.571 104.043 98.5166 96.6185 97.8019C88.4285 97.0129 82.3583 99.972 78.4498 106.659C76.8019 109.477 73.6001 118.777 71.3333 127.323C65.9956 147.445 62.6282 153.262 53.8057 157.59C45.6985 161.567 35.2998 163.049 15.1324 163.103L0 163.144V169.956V176.769L8.33824 176.788C12.9249 176.8 22.8245 177.318 30.3376 177.943C59.5362 180.366 68.1129 187.922 76.0348 218.211C79.5529 231.66 81.1304 235.327 85.3057 239.765C91.1931 246.024 102.617 247.97 110.75 244.099C116.958 241.147 120.647 235.522 124.966 222.427C127.069 216.049 129.199 210.375 129.701 209.819C130.202 209.263 132.08 212.483 133.874 216.977C137.046 224.922 141.198 244.113 145.077 268.758C147.579 284.663 151.273 292.056 158.461 295.545C171.558 301.902 184.034 295.583 188.326 280.421C189.325 276.891 191.308 265.362 192.731 254.802C195.258 236.045 198.228 222.042 201.795 212.07L203.567 207.115L206.911 214.547C208.75 218.634 211.351 224.914 212.694 228.501C217.147 240.407 224.255 246.132 234.586 246.132C240.905 246.132 245.574 244.32 249.948 240.169C254.882 235.488 256.349 232.204 260.053 217.537C265.591 195.609 271.891 186.966 286.517 181.229C292.104 179.036 312.597 176.826 327.662 176.788L336 176.769V170.136V163.503L314.691 162.834C290.504 162.075 282.603 160.059 275.854 152.927C270.407 147.173 268.359 142.491 264.25 126.406C262.252 118.58 259.785 110.565 258.768 108.593C254.133 99.6078 244.525 95.638 234.616 98.6157C225.727 101.286 221.94 109.353 217.411 135.274C215.981 143.449 213.232 154.876 211.301 160.666L207.789 171.195L211.211 178.768C213.093 182.933 215.207 186.696 215.907 187.13C217.318 188.004 223.087 174.864 227.177 161.457C228.604 156.782 231.182 145.141 232.909 135.589C236.388 116.329 238.543 109.882 241.5 109.882C244.106 109.882 246.33 115.482 250.131 131.609C255.171 152.998 259.45 160.286 270.775 166.772L276.857 170.253L270.155 174.046C257.138 181.412 250.812 191.588 244.68 215.02C242.671 222.7 240.347 229.803 239.516 230.808C238.634 231.873 236.455 232.479 234.286 232.261C230.779 231.909 230.242 231.076 224.838 217.643C221.688 209.809 215.971 198.198 212.136 191.84C208.299 185.484 204.04 177.278 202.67 173.606C198.414 162.201 195.344 143.594 193.997 121.03C190.447 61.5656 189.25 52.1941 184.369 45.6405C178.847 38.2236 165.188 35.6162 157.258 40.4643ZM98.0823 113.358C99.0681 115.27 101.041 123.212 102.466 131.008C107.383 157.903 110.75 170.017 117.531 185.202C120.63 192.142 120.83 193.32 119.316 195.731C117.751 198.224 112.147 212.195 106.925 226.624C105.053 231.795 104.364 232.507 101.22 232.507C96.4481 232.507 94.8076 229.655 90.8917 214.547C84.9289 191.54 76.9835 179.442 63.4361 172.739L58.3133 170.206L64.3082 167.211C75.8668 161.435 80.7808 153.282 85.8875 131.404C89.8961 114.232 89.98 113.972 92.1986 111.748C94.8533 109.086 96.0466 109.413 98.0823 113.358Z" fill="#178678"/>
</svg>
