<svg xmlns="http://www.w3.org/2000/svg" viewBox="120 56.97 272 209.91" fill="currentColor"><path d="M247.304 58.956 C 240.503 63.103,238.419 69.561,237.020 90.824 C 236.452 99.446,235.502 113.925,234.907 123.000 C 233.750 140.651,231.964 153.017,229.604 159.706 C 228.179 163.744,228.229 164.034,231.532 170.926 C 233.396 174.817,235.357 178.000,235.888 178.000 C 237.306 178.000,242.583 163.673,244.360 155.000 C 246.069 146.659,247.587 129.668,248.513 108.500 C 249.416 87.880,250.904 74.087,252.574 70.856 C 254.616 66.908,257.729 67.087,259.428 71.250 C 261.349 75.959,261.800 80.390,263.527 111.500 C 265.648 149.729,267.378 160.249,273.887 174.500 L 276.628 180.500 272.946 189.000 C 268.071 200.256,265.479 210.868,262.453 231.966 C 259.999 249.071,258.446 254.000,255.512 254.000 C 253.032 254.000,251.985 250.481,248.884 231.718 C 245.661 212.211,241.859 199.148,236.598 189.506 C 226.056 170.184,223.911 165.744,221.614 158.500 C 220.220 154.100,218.138 145.550,216.988 139.500 C 213.487 121.072,212.811 118.377,210.575 113.936 C 207.732 108.290,204.225 105.824,198.215 105.247 C 191.585 104.610,186.671 106.999,183.507 112.398 C 182.173 114.673,179.581 122.181,177.746 129.081 C 173.425 145.326,170.699 150.022,163.557 153.516 C 156.994 156.727,148.576 157.924,132.250 157.967 L 120.000 158.000 120.000 163.500 L 120.000 169.000 126.750 169.016 C 130.463 169.025,138.477 169.444,144.559 169.948 C 168.196 171.904,175.139 178.005,181.552 202.458 C 184.400 213.316,185.677 216.277,189.057 219.860 C 193.823 224.913,203.071 226.484,209.655 223.359 C 214.680 220.975,217.667 216.434,221.163 205.862 C 222.865 200.713,224.590 196.132,224.996 195.683 C 225.402 195.234,226.922 197.834,228.374 201.462 C 230.942 207.876,234.303 223.370,237.443 243.267 C 239.469 256.108,242.459 262.076,248.278 264.893 C 258.880 270.025,268.980 264.924,272.454 252.683 C 273.263 249.833,274.868 240.525,276.020 232.000 C 278.066 216.856,280.470 205.551,283.358 197.500 L 284.792 193.500 287.499 199.500 C 288.988 202.800,291.094 207.870,292.181 210.766 C 295.786 220.378,301.540 225.000,309.903 225.000 C 315.018 225.000,318.798 223.537,322.339 220.186 C 326.333 216.407,327.521 213.755,330.519 201.914 C 335.002 184.211,340.102 177.233,351.942 172.601 C 356.465 170.831,373.055 169.046,385.250 169.016 L 392.000 169.000 392.000 163.645 L 392.000 158.290 374.750 157.750 C 355.170 157.137,348.774 155.510,343.310 149.752 C 338.901 145.106,337.243 141.326,333.917 128.340 C 332.299 122.022,330.302 115.551,329.479 113.959 C 325.727 106.705,317.949 103.500,309.927 105.904 C 302.731 108.060,299.666 114.573,295.999 135.500 C 294.842 142.100,292.616 151.325,291.053 156.000 L 288.210 164.500 290.980 170.614 C 292.504 173.977,294.215 177.015,294.782 177.365 C 295.924 178.071,300.594 167.462,303.905 156.638 C 305.060 152.864,307.147 143.466,308.545 135.754 C 311.362 120.205,313.106 115.000,315.500 115.000 C 317.610 115.000,319.410 119.521,322.487 132.541 C 326.567 149.809,330.031 155.693,339.199 160.929 L 344.122 163.740 338.697 166.802 C 328.159 172.749,323.038 180.964,318.074 199.882 C 316.448 206.082,314.567 211.817,313.894 212.628 C 313.180 213.488,311.416 213.977,309.660 213.801 C 306.821 213.517,306.386 212.845,302.012 202.000 C 299.462 195.675,294.834 186.301,291.729 181.168 C 288.623 176.036,285.175 169.411,284.066 166.447 C 280.621 157.239,278.136 142.217,277.045 124.000 C 274.171 75.992,273.202 68.426,269.251 63.135 C 264.781 57.147,253.724 55.042,247.304 58.956 M199.400 117.806 C 200.198 119.350,201.795 125.762,202.949 132.056 C 206.929 153.769,209.655 163.549,215.144 175.809 C 217.653 181.412,217.815 182.363,216.589 184.309 C 215.322 186.322,210.786 197.601,206.558 209.250 C 205.043 213.425,204.485 214.000,201.940 214.000 C 198.077 214.000,196.749 211.697,193.579 199.500 C 188.752 180.926,182.320 171.158,171.353 165.747 L 167.206 163.702 172.059 161.284 C 181.416 156.621,185.394 150.038,189.528 132.375 C 192.773 118.512,192.841 118.302,194.637 116.506 C 196.786 114.357,197.752 114.621,199.400 117.806" fill-rule="evenodd"/></svg>
